{
  "accessors": [
    {
      "bufferView": 2,
      "componentType": 5126,
      "count": 65532,
      "max": [
        0.11243999749422073,
        0.12551000714302063,
        0.38089001178741455
      ],
      "min": [
        -0.05640000104904175,
        -0.06764999777078629,
        0.04430000111460686
      ],
      "type": "VEC3"
    },
    {
      "bufferView": 2,
      "byteOffset": 786384,
      "componentType": 5126,
      "count": 65532,
      "max": [
        0.9999982118606567,
        0.9999968409538269,
        0.999976396560669
      ],
      "min": [
        -0.9999818801879883,
        -0.9999441504478455,
        -0.9997507929801941
      ],
      "type": "VEC3"
    },
    {
      "bufferView": 1,
      "componentType": 5126,
      "count": 65532,
      "max": [
        0.9975780248641968,
        0.9958000183105469
      ],
      "min": [
        0.002094999887049198,
        0.14086699485778809
      ],
      "type": "VEC2"
    },
    {
      "bufferView": 0,
      "componentType": 5125,
      "count": 348684,
      "type": "SCALAR"
    },
    {
      "bufferView": 2,
      "byteOffset": 1572768,
      "componentType": 5126,
      "count": 34274,
      "max": [
        0.11083000153303146,
        0.12560999393463135,
        0.3788900077342987
      ],
      "min": [
        -0.057190001010894775,
        -0.06752999871969223,
        0.04430000111460686
      ],
      "type": "VEC3"
    },
    {
      "bufferView": 2,
      "byteOffset": 1984056,
      "componentType": 5126,
      "count": 34274,
      "max": [
        1.0,
        0.9999871253967285,
        0.999998152256012
      ],
      "min": [
        -0.999981701374054,
        -0.9999727606773376,
        -0.9979084134101868
      ],
      "type": "VEC3"
    },
    {
      "bufferView": 1,
      "byteOffset": 524256,
      "componentType": 5126,
      "count": 34274,
      "max": [
        0.995510995388031,
        0.8785290122032166
      ],
      "min": [
        0.002099999925121665,
        0.14002899825572968
      ],
      "type": "VEC2"
    },
    {
      "bufferView": 0,
      "byteOffset": 1394736,
      "componentType": 5125,
      "count": 184650,
      "type": "SCALAR"
    }
  ],
  "asset": {
    "extras": {
      "author": "Tavernier Amaury (https://sketchfab.com/svtavernier)",
      "license": "CC-BY-NC-SA-4.0 (http://creativecommons.org/licenses/by-nc-sa/4.0/)",
      "source": "https://sketchfab.com/3d-models/maquette-fleur-de-vignes-3307683570e74d11983fd2aaf5e244cd",
      "title": "Maquette fleur de vignes"
    },
    "generator": "Sketchfab-15.54.0",
    "version": "2.0"
  },
  "bufferViews": [
    {
      "buffer": 0,
      "byteLength": 2133336,
      "name": "floatBufferViews",
      "target": 34963
    },
    {
      "buffer": 0,
      "byteLength": 798448,
      "byteOffset": 2133336,
      "byteStride": 8,
      "name": "floatBufferViews",
      "target": 34962
    },
    {
      "buffer": 0,
      "byteLength": 2395344,
      "byteOffset": 2931784,
      "byteStride": 12,
      "name": "floatBufferViews",
      "target": 34962
    }
  ],
  "buffers": [
    {
      "byteLength": 5327128,
      "uri": "scene.bin"
    }
  ],
  "extensionsUsed": [
    "KHR_materials_unlit"
  ],
  "images": [
    {
      "uri": "textures/main_baseColor.jpeg"
    }
  ],
  "materials": [
    {
      "doubleSided": true,
      "extensions": {
        "KHR_materials_unlit": {}
      },
      "name": "main",
      "pbrMetallicRoughness": {
        "baseColorTexture": {
          "index": 0
        },
        "metallicFactor": 0.0
      }
    }
  ],
  "meshes": [
    {
      "name": "Object_0",
      "primitives": [
        {
          "attributes": {
            "NORMAL": 1,
            "POSITION": 0,
            "TEXCOORD_0": 2
          },
          "indices": 3,
          "material": 0,
          "mode": 4
        }
      ]
    },
    {
      "name": "Object_1",
      "primitives": [
        {
          "attributes": {
            "NORMAL": 5,
            "POSITION": 4,
            "TEXCOORD_0": 6
          },
          "indices": 7,
          "material": 0,
          "mode": 4
        }
      ]
    }
  ],
  "nodes": [
    {
      "children": [
        1
      ],
      "matrix": [
        1.0,
        0.0,
        0.0,
        0.0,
        0.0,
        2.220446049250313e-16,
        -1.0,
        0.0,
        0.0,
        1.0,
        2.220446049250313e-16,
        0.0,
        0.0,
        0.0,
        0.0,
        1.0
      ],
      "name": "Sketchfab_model"
    },
    {
      "children": [
        2,
        3
      ],
      "name": "Scaniverse.obj.cleaner.materialmerger.gles"
    },
    {
      "mesh": 0,
      "name": "Object_2"
    },
    {
      "mesh": 1,
      "name": "Object_3"
    }
  ],
  "samplers": [
    {
      "magFilter": 9729,
      "minFilter": 9987,
      "wrapS": 10497,
      "wrapT": 10497
    }
  ],
  "scene": 0,
  "scenes": [
    {
      "name": "Sketchfab_Scene",
      "nodes": [
        0
      ]
    }
  ],
  "textures": [
    {
      "sampler": 0,
      "source": 0
    }
  ]
}
