{
  "accessors": [
    {
      "bufferView": 2,
      "componentType": 5126,
      "count": 65532,
      "max": [
        0.07891000062227249,
        -0.0017099999822676182,
        0.33274000883102417
      ],
      "min": [
        -0.09040000289678574,
        -0.14365999400615692,
        0.09012000262737274
      ],
      "type": "VEC3"
    },
    {
      "bufferView": 2,
      "byteOffset": 786384,
      "componentType": 5126,
      "count": 65532,
      "max": [
        0.9999898672103882,
        0.9999287128448486,
        0.9999999403953552
      ],
      "min": [
        -0.9999935626983643,
        -0.9999961853027344,
        -0.9998275637626648
      ],
      "type": "VEC3"
    },
    {
      "bufferView": 1,
      "componentType": 5126,
      "count": 65532,
      "max": [
        0.9977840185165405,
        0.9978920221328735
      ],
      "min": [
        0.0020830000285059214,
        0.29712599515914917
      ],
      "type": "VEC2"
    },
    {
      "bufferView": 0,
      "componentType": 5125,
      "count": 356691,
      "type": "SCALAR"
    },
    {
      "bufferView": 2,
      "byteOffset": 1572768,
      "componentType": 5126,
      "count": 19277,
      "max": [
        0.07891000062227249,
        -0.009309999644756317,
        0.33281001448631287
      ],
      "min": [
        -0.08995000272989273,
        -0.14398999512195587,
        0.10801000148057938
      ],
      "type": "VEC3"
    },
    {
      "bufferView": 2,
      "byteOffset": 1804092,
      "componentType": 5126,
      "count": 19277,
      "max": [
        0.9999004602432251,
        0.9995057582855225,
        0.9999803304672241
      ],
      "min": [
        -0.9999640583992004,
        -0.9999983310699463,
        -0.99835604429245
      ],
      "type": "VEC3"
    },
    {
      "bufferView": 1,
      "byteOffset": 524256,
      "componentType": 5126,
      "count": 19277,
      "max": [
        0.9894160032272339,
        0.7391530275344849
      ],
      "min": [
        0.039820000529289246,
        0.4000450074672699
      ],
      "type": "VEC2"
    },
    {
      "bufferView": 0,
      "byteOffset": 1426764,
      "componentType": 5125,
      "count": 104496,
      "type": "SCALAR"
    }
  ],
  "asset": {
    "extras": {
      "author": "Tavernier Amaury (https://sketchfab.com/svtavernier)",
      "license": "CC-BY-NC-SA-4.0 (http://creativecommons.org/licenses/by-nc-sa/4.0/)",
      "source": "https://sketchfab.com/3d-models/modele-cur-a10478aec11d46bdabeb63b0c602b955",
      "title": "Modèle cœur"
    },
    "generator": "Sketchfab-15.55.0",
    "version": "2.0"
  },
  "bufferViews": [
    {
      "buffer": 0,
      "byteLength": 1844748,
      "name": "floatBufferViews",
      "target": 34963
    },
    {
      "buffer": 0,
      "byteLength": 678472,
      "byteOffset": 1844748,
      "byteStride": 8,
      "name": "floatBufferViews",
      "target": 34962
    },
    {
      "buffer": 0,
      "byteLength": 2035416,
      "byteOffset": 2523220,
      "byteStride": 12,
      "name": "floatBufferViews",
      "target": 34962
    }
  ],
  "buffers": [
    {
      "byteLength": 4558636,
      "uri": "scene.bin"
    }
  ],
  "extensionsUsed": [
    "KHR_materials_unlit"
  ],
  "images": [
    {
      "uri": "textures/main_baseColor.jpeg"
    }
  ],
  "materials": [
    {
      "doubleSided": true,
      "extensions": {
        "KHR_materials_unlit": {}
      },
      "name": "main",
      "pbrMetallicRoughness": {
        "baseColorTexture": {
          "index": 0
        },
        "metallicFactor": 0.0
      }
    }
  ],
  "meshes": [
    {
      "name": "Object_0",
      "primitives": [
        {
          "attributes": {
            "NORMAL": 1,
            "POSITION": 0,
            "TEXCOORD_0": 2
          },
          "indices": 3,
          "material": 0,
          "mode": 4
        }
      ]
    },
    {
      "name": "Object_1",
      "primitives": [
        {
          "attributes": {
            "NORMAL": 5,
            "POSITION": 4,
            "TEXCOORD_0": 6
          },
          "indices": 7,
          "material": 0,
          "mode": 4
        }
      ]
    }
  ],
  "nodes": [
    {
      "children": [
        1
      ],
      "matrix": [
        1.0,
        0.0,
        0.0,
        0.0,
        0.0,
        2.220446049250313e-16,
        -1.0,
        0.0,
        0.0,
        1.0,
        2.220446049250313e-16,
        0.0,
        0.0,
        0.0,
        0.0,
        1.0
      ],
      "name": "Sketchfab_model"
    },
    {
      "children": [
        2,
        3
      ],
      "name": "Scaniverse.obj.cleaner.materialmerger.gles"
    },
    {
      "mesh": 0,
      "name": "Object_2"
    },
    {
      "mesh": 1,
      "name": "Object_3"
    }
  ],
  "samplers": [
    {
      "magFilter": 9729,
      "minFilter": 9987,
      "wrapS": 10497,
      "wrapT": 10497
    }
  ],
  "scene": 0,
  "scenes": [
    {
      "name": "Sketchfab_Scene",
      "nodes": [
        0
      ]
    }
  ],
  "textures": [
    {
      "sampler": 0,
      "source": 0
    }
  ]
}
