{
  "accessors": [
    {
      "bufferView": 1,
      "componentType": 5126,
      "count": 6420,
      "max": [
        5.881200313568115,
        0.6889999508857727,
        1.674799919128418
      ],
      "min": [
        -4.970200061798096,
        -1.7948999404907227,
        -2.2409000396728516
      ],
      "type": "VEC3"
    },
    {
      "bufferView": 1,
      "byteOffset": 77040,
      "componentType": 5126,
      "count": 6420,
      "max": [
        1.0,
        1.0,
        1.0
      ],
      "min": [
        -1.0,
        -1.0,
        -1.0
      ],
      "type": "VEC3"
    },
    {
      "bufferView": 0,
      "componentType": 5125,
      "count": 57600,
      "type": "SCALAR"
    },
    {
      "bufferView": 1,
      "byteOffset": 154080,
      "componentType": 5126,
      "count": 8346,
      "max": [
        5.881200313568115,
        0.9104111194610596,
        1.7333999872207642
      ],
      "min": [
        -5.5392165184021,
        -0.969499945640564,
        -2.3715999126434326
      ],
      "type": "VEC3"
    },
    {
      "bufferView": 1,
      "byteOffset": 254232,
      "componentType": 5126,
      "count": 8346,
      "max": [
        1.0,
        1.0,
        1.0
      ],
      "min": [
        -1.0,
        -1.0,
        -1.0
      ],
      "type": "VEC3"
    },
    {
      "bufferView": 0,
      "byteOffset": 230400,
      "componentType": 5125,
      "count": 57600,
      "type": "SCALAR"
    },
    {
      "bufferView": 1,
      "byteOffset": 354384,
      "componentType": 5126,
      "count": 6420,
      "max": [
        5.881200313568115,
        0.9353999495506287,
        1.674799919128418
      ],
      "min": [
        -5.493200302124023,
        -1.9961999654769897,
        -1.9746999740600586
      ],
      "type": "VEC3"
    },
    {
      "bufferView": 1,
      "byteOffset": 431424,
      "componentType": 5126,
      "count": 6420,
      "max": [
        1.0,
        1.0,
        1.0
      ],
      "min": [
        -1.0,
        -1.0,
        -1.0
      ],
      "type": "VEC3"
    },
    {
      "bufferView": 0,
      "byteOffset": 460800,
      "componentType": 5125,
      "count": 57600,
      "type": "SCALAR"
    },
    {
      "bufferView": 1,
      "byteOffset": 508464,
      "componentType": 5126,
      "count": 5778,
      "max": [
        3.4539999961853027,
        0.26590001583099365,
        1.7333999872207642
      ],
      "min": [
        -2.7702999114990234,
        -0.6890999674797058,
        -2.3877999782562256
      ],
      "type": "VEC3"
    },
    {
      "bufferView": 1,
      "byteOffset": 577800,
      "componentType": 5126,
      "count": 5778,
      "max": [
        1.0,
        1.0,
        1.0
      ],
      "min": [
        -1.0,
        -1.0,
        -1.0
      ],
      "type": "VEC3"
    },
    {
      "bufferView": 0,
      "byteOffset": 691200,
      "componentType": 5125,
      "count": 57600,
      "type": "SCALAR"
    },
    {
      "bufferView": 1,
      "byteOffset": 647136,
      "componentType": 5126,
      "count": 6420,
      "max": [
        3.4539999961853027,
        0.6983999609947205,
        1.7333999872207642
      ],
      "min": [
        -3.4974000453948975,
        -1.9961999654769897,
        -2.3877999782562256
      ],
      "type": "VEC3"
    },
    {
      "bufferView": 1,
      "byteOffset": 724176,
      "componentType": 5126,
      "count": 6420,
      "max": [
        1.0,
        1.0,
        1.0
      ],
      "min": [
        -1.0,
        -1.0,
        -1.0
      ],
      "type": "VEC3"
    },
    {
      "bufferView": 0,
      "byteOffset": 921600,
      "componentType": 5125,
      "count": 57600,
      "type": "SCALAR"
    },
    {
      "bufferView": 1,
      "byteOffset": 801216,
      "componentType": 5126,
      "count": 8502,
      "max": [
        5.960241317749023,
        1.1066893339157104,
        2.085999011993408
      ],
      "min": [
        -5.482361793518066,
        -2.2947885990142822,
        -2.6330113410949707
      ],
      "type": "VEC3"
    },
    {
      "bufferView": 1,
      "byteOffset": 903240,
      "componentType": 5126,
      "count": 8502,
      "max": [
        1.0,
        1.0,
        1.0
      ],
      "min": [
        -1.0,
        -1.0,
        -1.0
      ],
      "type": "VEC3"
    },
    {
      "bufferView": 0,
      "byteOffset": 1152000,
      "componentType": 5125,
      "count": 54240,
      "type": "SCALAR"
    },
    {
      "bufferView": 1,
      "byteOffset": 1005264,
      "componentType": 5126,
      "count": 9996,
      "max": [
        6.120699882507324,
        1.1819101572036743,
        1.8986001014709473
      ],
      "min": [
        -5.975229740142822,
        -2.2356998920440674,
        -2.7392826080322266
      ],
      "type": "VEC3"
    },
    {
      "bufferView": 1,
      "byteOffset": 1125216,
      "componentType": 5126,
      "count": 9996,
      "max": [
        1.0,
        1.0,
        1.0
      ],
      "min": [
        -1.0,
        -1.0,
        -1.0
      ],
      "type": "VEC3"
    },
    {
      "bufferView": 0,
      "byteOffset": 1368960,
      "componentType": 5125,
      "count": 56784,
      "type": "SCALAR"
    },
    {
      "bufferView": 1,
      "byteOffset": 1245168,
      "componentType": 5126,
      "count": 3726,
      "max": [
        6.361998081207275,
        1.2423501014709473,
        2.067551612854004
      ],
      "min": [
        -6.009902000427246,
        -1.8890645503997803,
        -2.78499698638916
      ],
      "type": "VEC3"
    },
    {
      "bufferView": 1,
      "byteOffset": 1289880,
      "componentType": 5126,
      "count": 3726,
      "max": [
        1.0,
        1.0,
        1.0
      ],
      "min": [
        -1.0,
        -1.0,
        -1.0
      ],
      "type": "VEC3"
    },
    {
      "bufferView": 0,
      "byteOffset": 1596096,
      "componentType": 5125,
      "count": 16920,
      "type": "SCALAR"
    },
    {
      "bufferView": 1,
      "byteOffset": 1334592,
      "componentType": 5126,
      "count": 8064,
      "max": [
        7.148200035095215,
        2.291100025177002,
        2.636185646057129
      ],
      "min": [
        -6.772200107574463,
        -1.589400053024292,
        -0.6555742621421814
      ],
      "type": "VEC3"
    },
    {
      "bufferView": 1,
      "byteOffset": 1431360,
      "componentType": 5126,
      "count": 8064,
      "max": [
        1.0,
        1.0,
        1.0
      ],
      "min": [
        -1.0,
        -1.0,
        -1.0
      ],
      "type": "VEC3"
    },
    {
      "bufferView": 0,
      "byteOffset": 1663776,
      "componentType": 5125,
      "count": 58680,
      "type": "SCALAR"
    },
    {
      "bufferView": 1,
      "byteOffset": 1528128,
      "componentType": 5126,
      "count": 360,
      "max": [
        6.979453086853027,
        1.4714421033859253,
        1.7320834398269653
      ],
      "min": [
        -6.561285972595215,
        -0.24083161354064941,
        0.035114824771881104
      ],
      "type": "VEC3"
    },
    {
      "bufferView": 1,
      "byteOffset": 1532448,
      "componentType": 5126,
      "count": 360,
      "max": [
        1.0,
        -0.0,
        1.0
      ],
      "min": [
        -1.0,
        -0.0,
        -1.0
      ],
      "type": "VEC3"
    },
    {
      "bufferView": 0,
      "byteOffset": 1898496,
      "componentType": 5125,
      "count": 1080,
      "type": "SCALAR"
    },
    {
      "bufferView": 1,
      "byteOffset": 1536768,
      "componentType": 5126,
      "count": 9630,
      "max": [
        7.114499568939209,
        2.4690001010894775,
        3.223099946975708
      ],
      "min": [
        -5.43179988861084,
        -2.6572999954223633,
        -2.2602999210357666
      ],
      "type": "VEC3"
    },
    {
      "bufferView": 1,
      "byteOffset": 1652328,
      "componentType": 5126,
      "count": 9630,
      "max": [
        1.0,
        1.0,
        1.0
      ],
      "min": [
        -1.0,
        -1.0,
        -1.0
      ],
      "type": "VEC3"
    },
    {
      "bufferView": 0,
      "byteOffset": 1902816,
      "componentType": 5125,
      "count": 57600,
      "type": "SCALAR"
    },
    {
      "bufferView": 1,
      "byteOffset": 1767888,
      "componentType": 5126,
      "count": 9630,
      "max": [
        4.125499725341797,
        2.570500135421753,
        2.7827999591827393
      ],
      "min": [
        -5.476999759674072,
        -2.7588000297546387,
        -3.2690999507904053
      ],
      "type": "VEC3"
    },
    {
      "bufferView": 1,
      "byteOffset": 1883448,
      "componentType": 5126,
      "count": 9630,
      "max": [
        1.0,
        1.0,
        1.0
      ],
      "min": [
        -1.0,
        -1.0,
        -1.0
      ],
      "type": "VEC3"
    },
    {
      "bufferView": 0,
      "byteOffset": 2133216,
      "componentType": 5125,
      "count": 57600,
      "type": "SCALAR"
    },
    {
      "bufferView": 1,
      "byteOffset": 1999008,
      "componentType": 5126,
      "count": 9990,
      "max": [
        5.88730001449585,
        1.736299991607666,
        2.681299924850464
      ],
      "min": [
        -5.185600280761719,
        -2.3992998600006104,
        -3.3350000381469727
      ],
      "type": "VEC3"
    },
    {
      "bufferView": 1,
      "byteOffset": 2118888,
      "componentType": 5126,
      "count": 9990,
      "max": [
        1.0,
        1.0,
        1.0
      ],
      "min": [
        -1.0,
        -1.0,
        -1.0
      ],
      "type": "VEC3"
    },
    {
      "bufferView": 0,
      "byteOffset": 2363616,
      "componentType": 5125,
      "count": 58680,
      "type": "SCALAR"
    },
    {
      "bufferView": 1,
      "byteOffset": 2238768,
      "componentType": 5126,
      "count": 9714,
      "max": [
        6.04196310043335,
        1.8840000629425049,
        2.589400053024292
      ],
      "min": [
        -5.3629984855651855,
        -2.6248836517333984,
        -3.436500072479248
      ],
      "type": "VEC3"
    },
    {
      "bufferView": 1,
      "byteOffset": 2355336,
      "componentType": 5126,
      "count": 9714,
      "max": [
        1.0,
        1.0,
        1.0
      ],
      "min": [
        -1.0,
        -1.0,
        -1.0
      ],
      "type": "VEC3"
    },
    {
      "bufferView": 0,
      "byteOffset": 2598336,
      "componentType": 5125,
      "count": 54024,
      "type": "SCALAR"
    },
    {
      "bufferView": 1,
      "byteOffset": 2471904,
      "componentType": 5126,
      "count": 1716,
      "max": [
        7.011155605316162,
        2.4553089141845703,
        3.0492422580718994
      ],
      "min": [
        -5.320194721221924,
        -1.8724000453948975,
        -1.4645999670028687
      ],
      "type": "VEC3"
    },
    {
      "bufferView": 1,
      "byteOffset": 2492496,
      "componentType": 5126,
      "count": 1716,
      "max": [
        1.0,
        1.0,
        1.0
      ],
      "min": [
        -1.0,
        -1.0,
        -1.0
      ],
      "type": "VEC3"
    },
    {
      "bufferView": 0,
      "byteOffset": 2814432,
      "componentType": 5125,
      "count": 8976,
      "type": "SCALAR"
    }
  ],
  "asset": {
    "extras": {
      "author": "S.Duce (https://sketchfab.com/sduce)",
      "license": "CC-BY-4.0 (http://creativecommons.org/licenses/by/4.0/)",
      "source": "https://sketchfab.com/3d-models/cortisol-hormone-molecule-0c5b17a0d8334b1b8ae8230cca143cbb",
      "title": "Cortisol Hormone Molecule"
    },
    "generator": "Sketchfab-13.58.0",
    "version": "2.0"
  },
  "bufferViews": [
    {
      "buffer": 0,
      "byteLength": 2850336,
      "name": "floatBufferViews",
      "target": 34963
    },
    {
      "buffer": 0,
      "byteLength": 2513088,
      "byteOffset": 2850336,
      "byteStride": 12,
      "name": "floatBufferViews",
      "target": 34962
    }
  ],
  "buffers": [
    {
      "byteLength": 5363424,
      "uri": "scene.bin"
    }
  ],
  "materials": [
    {
      "doubleSided": true,
      "name": "k909090",
      "pbrMetallicRoughness": {
        "baseColorFactor": [
          0.566,
          0.566,
          0.566,
          1.0
        ],
        "metallicFactor": 0.0,
        "roughnessFactor": 0.9106721441304432
      }
    },
    {
      "doubleSided": true,
      "name": "kff0d0d",
      "pbrMetallicRoughness": {
        "baseColorFactor": [
          1.0,
          0.055,
          0.055,
          1.0
        ],
        "metallicFactor": 0.0,
        "roughnessFactor": 0.9106721441304432
      }
    },
    {
      "doubleSided": true,
      "name": "kffffff",
      "pbrMetallicRoughness": {
        "metallicFactor": 0.0,
        "roughnessFactor": 0.9106721441304432
      }
    }
  ],
  "meshes": [
    {
      "name": "Object_0",
      "primitives": [
        {
          "attributes": {
            "NORMAL": 1,
            "POSITION": 0
          },
          "indices": 2,
          "material": 0,
          "mode": 4
        }
      ]
    },
    {
      "name": "Object_1",
      "primitives": [
        {
          "attributes": {
            "NORMAL": 4,
            "POSITION": 3
          },
          "indices": 5,
          "material": 0,
          "mode": 4
        }
      ]
    },
    {
      "name": "Object_2",
      "primitives": [
        {
          "attributes": {
            "NORMAL": 7,
            "POSITION": 6
          },
          "indices": 8,
          "material": 0,
          "mode": 4
        }
      ]
    },
    {
      "name": "Object_3",
      "primitives": [
        {
          "attributes": {
            "NORMAL": 10,
            "POSITION": 9
          },
          "indices": 11,
          "material": 0,
          "mode": 4
        }
      ]
    },
    {
      "name": "Object_4",
      "primitives": [
        {
          "attributes": {
            "NORMAL": 13,
            "POSITION": 12
          },
          "indices": 14,
          "material": 0,
          "mode": 4
        }
      ]
    },
    {
      "name": "Object_5",
      "primitives": [
        {
          "attributes": {
            "NORMAL": 16,
            "POSITION": 15
          },
          "indices": 17,
          "material": 0,
          "mode": 4
        }
      ]
    },
    {
      "name": "Object_6",
      "primitives": [
        {
          "attributes": {
            "NORMAL": 19,
            "POSITION": 18
          },
          "indices": 20,
          "material": 0,
          "mode": 4
        }
      ]
    },
    {
      "name": "Object_7",
      "primitives": [
        {
          "attributes": {
            "NORMAL": 22,
            "POSITION": 21
          },
          "indices": 23,
          "material": 0,
          "mode": 4
        }
      ]
    },
    {
      "name": "Object_8",
      "primitives": [
        {
          "attributes": {
            "NORMAL": 25,
            "POSITION": 24
          },
          "indices": 26,
          "material": 1,
          "mode": 4
        }
      ]
    },
    {
      "name": "Object_9",
      "primitives": [
        {
          "attributes": {
            "NORMAL": 28,
            "POSITION": 27
          },
          "indices": 29,
          "material": 1,
          "mode": 4
        }
      ]
    },
    {
      "name": "Object_10",
      "primitives": [
        {
          "attributes": {
            "NORMAL": 31,
            "POSITION": 30
          },
          "indices": 32,
          "material": 2,
          "mode": 4
        }
      ]
    },
    {
      "name": "Object_11",
      "primitives": [
        {
          "attributes": {
            "NORMAL": 34,
            "POSITION": 33
          },
          "indices": 35,
          "material": 2,
          "mode": 4
        }
      ]
    },
    {
      "name": "Object_12",
      "primitives": [
        {
          "attributes": {
            "NORMAL": 37,
            "POSITION": 36
          },
          "indices": 38,
          "material": 2,
          "mode": 4
        }
      ]
    },
    {
      "name": "Object_13",
      "primitives": [
        {
          "attributes": {
            "NORMAL": 40,
            "POSITION": 39
          },
          "indices": 41,
          "material": 2,
          "mode": 4
        }
      ]
    },
    {
      "name": "Object_14",
      "primitives": [
        {
          "attributes": {
            "NORMAL": 43,
            "POSITION": 42
          },
          "indices": 44,
          "material": 2,
          "mode": 4
        }
      ]
    }
  ],
  "nodes": [
    {
      "children": [
        1
      ],
      "matrix": [
        0.9977887272834778,
        1.4758257049789376e-17,
        -0.06646528095006943,
        0.0,
        -0.06646528095006943,
        2.2155360374830963e-16,
        -0.9977887272834778,
        0.0,
        0.0,
        1.0,
        2.220446049250313e-16,
        0.0,
        0.0,
        0.0,
        0.0,
        1.0
      ],
      "name": "Sketchfab_model"
    },
    {
      "children": [
        2,
        3,
        4,
        5,
        6,
        7,
        8,
        9,
        10,
        11,
        12,
        13,
        14,
        15,
        16
      ],
      "name": "Cortisol.obj.cleaner.materialmerger.gles"
    },
    {
      "mesh": 0,
      "name": "Object_2"
    },
    {
      "mesh": 1,
      "name": "Object_3"
    },
    {
      "mesh": 2,
      "name": "Object_4"
    },
    {
      "mesh": 3,
      "name": "Object_5"
    },
    {
      "mesh": 4,
      "name": "Object_6"
    },
    {
      "mesh": 5,
      "name": "Object_7"
    },
    {
      "mesh": 6,
      "name": "Object_8"
    },
    {
      "mesh": 7,
      "name": "Object_9"
    },
    {
      "mesh": 8,
      "name": "Object_10"
    },
    {
      "mesh": 9,
      "name": "Object_11"
    },
    {
      "mesh": 10,
      "name": "Object_12"
    },
    {
      "mesh": 11,
      "name": "Object_13"
    },
    {
      "mesh": 12,
      "name": "Object_14"
    },
    {
      "mesh": 13,
      "name": "Object_15"
    },
    {
      "mesh": 14,
      "name": "Object_16"
    }
  ],
  "scene": 0,
  "scenes": [
    {
      "name": "Sketchfab_Scene",
      "nodes": [
        0
      ]
    }
  ]
}
