{
  "accessors": [
    {
      "bufferView": 2,
      "componentType": 5126,
      "count": 8717,
      "max": [
        0.5,
        0.4995254576206207,
        0.2654527723789215
      ],
      "min": [
        -0.5,
        -0.5,
        -0.2654527723789215
      ],
      "type": "VEC3"
    },
    {
      "bufferView": 2,
      "byteOffset": 104604,
      "componentType": 5126,
      "count": 8717,
      "max": [
        1.0,
        1.0,
        0.9999921321868896
      ],
      "min": [
        -1.0,
        -1.0,
        -0.9999921321868896
      ],
      "type": "VEC3"
    },
    {
      "bufferView": 1,
      "componentType": 5126,
      "count": 8717,
      "max": [
        0.9840774536132813,
        0.9998106360435486
      ],
      "min": [
        9.047424828168005e-05,
        5.317421891959384e-05
      ],
      "type": "VEC2"
    },
    {
      "bufferView": 1,
      "byteOffset": 69736,
      "componentType": 5126,
      "count": 8717,
      "max": [
        0.9840774536132813,
        0.9998106360435486
      ],
      "min": [
        9.047424828168005e-05,
        5.317421891959384e-05
      ],
      "type": "VEC2"
    },
    {
      "bufferView": 1,
      "byteOffset": 139472,
      "componentType": 5126,
      "count": 8717,
      "max": [
        0.9840774536132813,
        0.9998106360435486
      ],
      "min": [
        9.047424828168005e-05,
        5.317421891959384e-05
      ],
      "type": "VEC2"
    },
    {
      "bufferView": 0,
      "componentType": 5125,
      "count": 49794,
      "type": "SCALAR"
    }
  ],
  "asset": {
    "extras": {
      "author": "ismailfadlurrohman (https://sketchfab.com/ismailfadlurrohman665)",
      "license": "CC-BY-4.0 (http://creativecommons.org/licenses/by/4.0/)",
      "source": "https://sketchfab.com/3d-models/sistem-pencernaan-ismail-smpn1baleendah-940ecd6ac06347ef9cb645bf3e41200e",
      "title": "Sistem Pencernaan ismail smpn1baleendah"
    },
    "generator": "Sketchfab-16.21.0",
    "version": "2.0"
  },
  "bufferViews": [
    {
      "buffer": 0,
      "byteLength": 199176,
      "name": "floatBufferViews",
      "target": 34963
    },
    {
      "buffer": 0,
      "byteLength": 209208,
      "byteOffset": 199176,
      "byteStride": 8,
      "name": "floatBufferViews",
      "target": 34962
    },
    {
      "buffer": 0,
      "byteLength": 209208,
      "byteOffset": 408384,
      "byteStride": 12,
      "name": "floatBufferViews",
      "target": 34962
    }
  ],
  "buffers": [
    {
      "byteLength": 617592,
      "uri": "scene.bin"
    }
  ],
  "extensionsRequired": [
    "KHR_materials_pbrSpecularGlossiness"
  ],
  "extensionsUsed": [
    "KHR_materials_pbrSpecularGlossiness"
  ],
  "images": [
    {
      "uri": "textures/material_diffuse.png"
    },
    {
      "uri": "textures/material_specularGlossiness.png"
    }
  ],
  "materials": [
    {
      "doubleSided": true,
      "extensions": {
        "KHR_materials_pbrSpecularGlossiness": {
          "diffuseFactor": [
            1.0,
            1.0,
            1.0,
            1.0
          ],
          "diffuseTexture": {
            "index": 0
          },
          "glossinessFactor": 1.0,
          "specularFactor": [
            1.0,
            1.0,
            1.0
          ],
          "specularGlossinessTexture": {
            "index": 1
          }
        }
      },
      "name": "material"
    }
  ],
  "meshes": [
    {
      "name": "Object_0",
      "primitives": [
        {
          "attributes": {
            "NORMAL": 1,
            "POSITION": 0,
            "TEXCOORD_0": 2,
            "TEXCOORD_1": 3,
            "TEXCOORD_2": 4
          },
          "indices": 5,
          "material": 0,
          "mode": 4
        }
      ]
    }
  ],
  "nodes": [
    {
      "children": [
        1
      ],
      "matrix": [
        6.2583112716674805,
        0.0,
        0.0,
        0.0,
        0.0,
        1.389624253815276e-15,
        -6.2583112716674805,
        0.0,
        0.0,
        6.2583112716674805,
        1.389624253815276e-15,
        0.0,
        0.0,
        0.0,
        0.0,
        1.0
      ],
      "name": "Sketchfab_model"
    },
    {
      "children": [
        2
      ],
      "name": "root"
    },
    {
      "children": [
        3
      ],
      "matrix": [
        1.0,
        0.0,
        0.0,
        0.0,
        0.0,
        2.220446049250313e-16,
        1.0,
        0.0,
        0.0,
        -1.0,
        2.220446049250313e-16,
        0.0,
        0.0,
        0.0,
        0.0,
        1.0
      ],
      "name": "GLTF_SceneRootNode"
    },
    {
      "children": [
        4
      ],
      "name": "root_1"
    },
    {
      "children": [
        5
      ],
      "matrix": [
        0.25195401906967163,
        0.0,
        0.0,
        0.0,
        0.0,
        0.46572139859199524,
        0.0,
        0.0,
        0.0,
        0.0,
        0.2456192672252655,
        0.0,
        -0.011712921783328056,
        0.23134171962738037,
        0.19999073445796967,
        1.0
      ],
      "name": "_0"
    },
    {
      "mesh": 0,
      "name": "Object_5"
    }
  ],
  "samplers": [
    {
      "magFilter": 9729,
      "minFilter": 9987,
      "wrapS": 10497,
      "wrapT": 10497
    }
  ],
  "scene": 0,
  "scenes": [
    {
      "name": "Sketchfab_Scene",
      "nodes": [
        0
      ]
    }
  ],
  "textures": [
    {
      "sampler": 0,
      "source": 0
    },
    {
      "sampler": 0,
      "source": 1
    }
  ]
}
